<svg height="41" width="174.85000610351562" viewBox="0 0 174.85000610351562 41" xmlns="http://www.w3.org/2000/svg" data-logo="logo">
        <g transform="translate(0, 0.5)&#10;    rotate(0 15 20)" id="logogram" style="opacity: 1;"><path fill="#000000" d="M15 0L20.4545 5.33333L0 25.3333V14.6667L15 0Z"/><path fill="#000000" d="M2.90827 28.177L15 40L30 25.3334V14.6667L20.4545 5.33337L0 25.3334L0.0041688 25.3375L20.4545 5.33337V20.6667L11.25 29.6667V20.1324L2.90827 28.177Z"/></g>
        <g transform="translate(36, 7.237500000000001)" id="logotype" style="opacity: 1;"><path d="M20.35 26.52Q16.43 26.52 13.42 24.97Q10.41 23.41 8.77 20.54Q7.12 17.67 7.12 13.78L7.12 13.78Q7.12 9.90 8.77 7.01Q10.41 4.12 13.42 2.57Q16.43 1.01 20.35 1.01L20.35 1.01Q25.43 1.01 28.82 3.32L28.82 3.32L28.82 8.36Q27.28 7.06 25.30 6.49Q23.33 5.91 20.80 5.91L20.80 5.91Q16.99 5.91 14.77 8.03Q12.55 10.14 12.55 13.78L12.55 13.78Q12.55 17.46 14.79 19.58Q17.02 21.70 20.80 21.70L20.80 21.70Q23.40 21.70 25.39 21.08Q27.39 20.47 29.10 19.11L29.10 19.11L29.10 24.14Q25.88 26.52 20.35 26.52L20.35 26.52ZM40.62 26.52Q37.57 26.52 35.28 25.42Q32.98 24.32 31.74 22.31Q30.50 20.29 30.50 17.60L30.50 17.60Q30.50 14.97 31.74 12.94Q32.98 10.91 35.28 9.79Q37.57 8.67 40.62 8.67L40.62 8.67Q43.63 8.67 45.92 9.79Q48.21 10.91 49.45 12.94Q50.70 14.97 50.70 17.60L50.70 17.60Q50.70 20.29 49.45 22.31Q48.21 24.32 45.94 25.42Q43.66 26.52 40.62 26.52L40.62 26.52ZM40.62 22.39Q42.75 22.39 44.01 21.08Q45.27 19.77 45.27 17.60L45.27 17.60Q45.27 15.36 44.03 14.08Q42.79 12.80 40.62 12.80L40.62 12.80Q38.45 12.80 37.19 14.08Q35.93 15.36 35.93 17.60L35.93 17.60Q35.93 19.77 37.20 21.08Q38.48 22.39 40.62 22.39L40.62 22.39ZM53.67 26L53.67 9.20L58.78 9.20L58.78 11.61Q59.80 10.39 61.62 9.74Q63.44 9.09 65.75 9.09L65.75 9.09L65.75 13.12Q63.33 13.12 61.49 13.85Q59.66 14.59 58.96 16.09L58.96 16.09L58.96 26L53.67 26ZM74.32 26L67.39 9.20L71.84 9.20L76.39 20.82L80.94 9.20L85.38 9.20L78.45 26L74.32 26ZM91.93 6.61Q90.70 6.61 89.86 5.80Q89.02 5.00 89.02 3.77L89.02 3.77Q89.02 2.58 89.86 1.76Q90.70 0.94 91.93 0.94L91.93 0.94Q93.15 0.94 93.99 1.76Q94.83 2.58 94.83 3.77L94.83 3.77Q94.83 5.00 93.99 5.80Q93.15 6.61 91.93 6.61L91.93 6.61ZM89.27 26L89.27 9.20L94.59 9.20L94.59 26L89.27 26ZM104.74 26.52Q101.66 26.52 99.71 24.97Q97.77 23.41 97.77 20.71L97.77 20.71Q97.77 17.91 99.63 16.36Q101.48 14.80 104.88 14.80L104.88 14.80Q106.38 14.80 107.75 15.11Q109.11 15.43 110.16 15.99L110.16 15.99L110.16 15.57Q110.16 13.99 109.04 13.26Q107.92 12.52 105.61 12.52L105.61 12.52Q102.53 12.52 99.94 13.68L99.94 13.68L99.94 9.83Q101.06 9.34 102.85 9.01Q104.63 8.67 106.42 8.67L106.42 8.67Q110.97 8.67 113.21 10.55Q115.45 12.42 115.45 15.78L115.45 15.78L115.45 26L110.48 26L110.48 24.46Q108.34 26.52 104.74 26.52L104.74 26.52ZM106.17 23.02Q107.47 23.02 108.52 22.54Q109.57 22.04 110.16 21.17L110.16 21.17L110.16 19.49Q108.38 18.30 106.24 18.30L106.24 18.30Q104.77 18.30 103.98 18.91Q103.20 19.52 103.20 20.71L103.20 20.71Q103.20 21.84 103.97 22.43Q104.74 23.02 106.17 23.02L106.17 23.02ZM118.95 26L118.95 9.20L124.06 9.20L124.06 11.26Q125.21 9.97 126.80 9.32Q128.40 8.67 130.15 8.67L130.15 8.67Q133.58 8.67 135.27 10.51Q136.97 12.35 136.97 15.46L136.97 15.46L136.97 26L131.69 26L131.69 16.06Q131.69 12.80 128.68 12.80L128.68 12.80Q127.35 12.80 126.19 13.45Q125.04 14.10 124.23 15.36L124.23 15.36L124.23 26L118.95 26Z" fill="#000000"/></g>
        
      </svg>